<svg xmlns="http://www.w3.org/2000/svg" viewBox="0 0 512 512">
  <rect width="512" height="512" rx="80" fill="#6B5B3E"/>
  <!-- Cup body -->
  <path d="M148 195 Q142 375 195 395 L317 395 Q370 375 364 195 Z" fill="#FFF8E7" stroke="#EDE5CE" stroke-width="2"/>
  <!-- Handle -->
  <path d="M364 235 Q410 240 412 305 Q414 365 370 370" fill="none" stroke="#FFF8E7" stroke-width="14" stroke-linecap="round"/>
  <!-- Liquid surface -->
  <ellipse cx="256" cy="195" rx="108" ry="30" fill="#4ECDA0"/>
  <!-- Cup rim -->
  <ellipse cx="256" cy="195" rx="108" ry="30" fill="none" stroke="#EDE5CE" stroke-width="3"/>
  <!-- Cosmic sparkles -->
  <path d="M218 128 L224 108 L230 128 L250 134 L230 140 L224 160 L218 140 L198 134 Z" fill="#4ECDA0" opacity="0.9"/>
  <path d="M268 100 L273 84 L278 100 L294 105 L278 110 L273 126 L268 110 L252 105 Z" fill="#4ECDA0" opacity="0.7"/>
  <path d="M308 118 L313 102 L318 118 L334 123 L318 128 L313 144 L308 128 L292 123 Z" fill="#4ECDA0" opacity="0.55"/>
</svg>
